<svg id="Calque_1" 
data-name="Calque 1" 
xmlns="http://www.w3.org/2000/svg" 
viewBox="0 0 487.19 421.22">
<defs>
	<style>.cls-1{fill:#6b7280;}</style>
</defs>
	<path class="cls-1" d="M354.46,283,160.23,95.26a105,105,0,0,1,43.63-30.12c9.21-3.27,12.2-7.5,11.72-17.11-.84-16.89,6.83-27.73,20.46-31.75,16.45-4.83,35.82,7.53,34.89,24.57-.86,15.6,5.5,21.11,18.83,27.29,41.91,19.49,63.7,53.64,64.36,100.14.54,37.91-.11,75.86.3,113.78C354.42,282.38,354.44,282.7,354.46,283Z"/>
	<path class="cls-1" d="M282.13,356.31c-3,17.67-20.77,31.89-39.33,31.62-18.32-.27-35.05-15-38.06-33.18-.91-5.52,1.15-7.92,6.5-7.92,21.79.05,43.58.14,65.37.14C283.85,347,282.9,351.81,282.13,356.31Z"/>
	<path class="cls-1" d="M416.33,386.7a19.3,19.3,0,0,1-32.93,13.63l-60.06-60.06L134,150.94,76.5,93.45a19.29,19.29,0,0,1,27.29-27.28l44.9,44.9L374.9,337.3h0l35.75,35.76A19.15,19.15,0,0,1,416.33,386.7Z"/>
	<path class="cls-1" d="M243.14,340.27v-.18q-60.45,0-120.91.06c-6.33,0-11.9-.76-15-7.24s-.14-11.47,4-16.18c1-1.13,1.65-2.58,2.76-3.51,16.87-14.16,20-32.42,19.06-53.56-1.15-24.83-.77-49.76-.5-74.66L293.22,340.31Q268.2,340.31,243.14,340.27Z"/>
</svg>